<svg width="222" height="216" viewBox="0 0 222 216" fill="none" xmlns="http://www.w3.org/2000/svg">
<path fill-rule="evenodd" clip-rule="evenodd" d="M116.6 86.3001L95.7 50.1001L66.8 100.3L100.2 158.2L114.7 133.1C122.6 119.3 123.5 98.3001 116.6 86.3001Z" fill="#DB3B17"/>
<path fill-rule="evenodd" clip-rule="evenodd" d="M53.9 50.2002H95.7L66.8 100.3H0L14.5 75.2002C22.4 61.4002 40.2 50.2002 53.9 50.2002Z" fill="#EF5924"/>
<path fill-rule="evenodd" clip-rule="evenodd" d="M149.7 0.100098H191.5L162.6 50.2001H95.8L110.3 25.1001C118.1 11.3001 135.9 0.100098 149.7 0.100098Z" fill="#F6874B"/>
<path fill-rule="evenodd" clip-rule="evenodd" d="M212.3 36.2L191.4 0L162.5 50.1L195.9 108L210.4 82.9C218.3 69.2 219.2 48.2 212.3 36.2Z" fill="#F27243"/>
<path fill-rule="evenodd" clip-rule="evenodd" d="M216.8 144.2L195.9 108L167 158.1L200.4 216L214.9 190.9C222.8 177.1 223.7 156.1 216.8 144.2Z" fill="#AF2322"/>
<path fill-rule="evenodd" clip-rule="evenodd" d="M154.1 108H195.9L167 158.1H100.2L114.7 133C122.6 119.3 140.4 108 154.1 108Z" fill="#D12524"/>
</svg>
